<?xml version="1.0" encoding="utf-8"?>
<!-- Generator: Adobe Illustrator 23.1.0, SVG Export Plug-In . SVG Version: 6.00 Build 0)  -->
<svg version="1.1" id="Слой_1" xmlns="http://www.w3.org/2000/svg" xmlns:xlink="http://www.w3.org/1999/xlink" x="0px" y="0px"
	 viewBox="0 0 320 240" style="enable-background:new 0 0 320 240;" xml:space="preserve">
<style type="text/css">
	.st0{fill:none;stroke:#428cff;stroke-width:6;stroke-miterlimit:10;}
	.st1{fill:#428cff;}
</style>
<g>
	<g>
		<path class="st0" d="M269.1,156.1c20.2-1.7,37.3-7.8,37.3-18.3c0-1.3-0.1-5.6,0-7.8"/>
		<path class="st0" d="M276.3,141.1c16.9-2.5,30-8.3,30-17.5c0-1.4-1.4-3.7-1.9-5"/>
		<line class="st0" x1="306.2" y1="136.6" x2="306.2" y2="123.6"/>
		<line class="st0" x1="283.1" y1="139.8" x2="283.1" y2="154.4"/>
		<line class="st0" x1="293.9" y1="136.6" x2="293.9" y2="150.9"/>
		<line class="st0" x1="302.2" y1="131.7" x2="302.2" y2="146.1"/>
	</g>
	<g>
		<path class="st0" d="M278.5,136.2c14.8-2.8,25.7-8.4,25.6-16.7c0-1.3,0-2.8,0-6.1"/>
		<path class="st0" d="M279,121.9c14.5-2.8,25.1-8.4,25.1-16.6"/>
		<line class="st0" x1="304" y1="118.3" x2="304.1" y2="105.2"/>
		<line class="st0" x1="281" y1="121.5" x2="281" y2="136.1"/>
		<line class="st0" x1="291.6" y1="118.3" x2="291.6" y2="132.5"/>
	</g>
	<g>
		<path class="st0" d="M276.5,116.2c20-1.7,36.8-7.9,36.6-18.2c0-1.3,0.4-6.5,0-7.7"/>
		<path class="st0" d="M278.4,101.9c19.1-1.9,34.7-8,34.6-18c-0.1-12-22.5-19.1-46.3-20.7"/>
		<line class="st0" x1="313.1" y1="96.9" x2="313.1" y2="83.9"/>
		<line class="st0" x1="289.9" y1="100" x2="289.9" y2="114.6"/>
		<line class="st0" x1="300.7" y1="96.9" x2="300.7" y2="111.1"/>
		<line class="st0" x1="309" y1="92" x2="309" y2="106.3"/>
	</g>
	<g>
		<path class="st0" d="M185.9,203.1c37.6,7.9,95.9,2,95.8-16.8c0-1.3-0.1-4.7-0.1-8.4"/>
		<path class="st0" d="M204.2,190.4c35.7,3.1,77.6-3.5,77.4-19.5c0-4.5-3.4-8.4-9.1-11.6"/>
		<line class="st0" x1="281.5" y1="185" x2="281.6" y2="170.9"/>
		<line class="st0" x1="222.8" y1="190.8" x2="222.8" y2="205.6"/>
		<line class="st0" x1="239" y1="190.4" x2="239" y2="204.8"/>
		<line class="st0" x1="253.2" y1="188.5" x2="253.2" y2="204.1"/>
		<line class="st0" x1="266.3" y1="185" x2="266.3" y2="200.4"/>
		<line class="st0" x1="276.6" y1="179.7" x2="276.6" y2="195.2"/>
	</g>
	<g>
		<path class="st0" d="M209.8,184.8c31.3,0.3,62.1-6.5,62-20.2c0-1.3-0.3-4.5,0-8.9"/>
		<path class="st0" d="M219.3,169.4c27.7-1.1,52.5-7.8,52.4-20"/>
		<line class="st0" x1="271.7" y1="163.4" x2="271.8" y2="149.4"/>
		<line class="st0" x1="229.2" y1="168.8" x2="229.2" y2="183.1"/>
		<line class="st0" x1="243.3" y1="166.8" x2="243.3" y2="182.6"/>
		<line class="st0" x1="256.5" y1="163.4" x2="256.5" y2="178.8"/>
		<line class="st0" x1="266.8" y1="158.1" x2="266.8" y2="173.7"/>
	</g>
	<g>
		<path class="st0" d="M221.7,163.3c28.7-0.7,55-7.5,54.9-20.1c0-1.3,0-5-0.1-8.3"/>
		<path class="st0" d="M224.7,147.9c27.5-1.1,51.9-7.9,51.8-20"/>
		<line class="st0" x1="276.4" y1="141.9" x2="276.5" y2="127.9"/>
		<line class="st0" x1="233.9" y1="147.2" x2="233.9" y2="161.6"/>
		<line class="st0" x1="248.1" y1="145.3" x2="248.1" y2="161.1"/>
		<line class="st0" x1="261.2" y1="141.9" x2="261.2" y2="157.3"/>
		<line class="st0" x1="271.5" y1="136.6" x2="271.5" y2="152.1"/>
	</g>
	<g>
		<path class="st0" d="M225.1,143.3c28.3-0.9,54.2-7.6,54.1-20.1c0-1.3-0.6-6.4-0.6-10.1"/>
		<path class="st0" d="M223.4,128c29-0.6,55.8-7.4,55.7-20.1c0-4-2.8-7.6-7.4-10.5"/>
		<line class="st0" x1="279" y1="121.9" x2="279.1" y2="107.8"/>
		<line class="st0" x1="236.6" y1="127.3" x2="236.6" y2="141.7"/>
		<line class="st0" x1="250.6" y1="125.4" x2="250.6" y2="141.1"/>
		<line class="st0" x1="263.8" y1="121.9" x2="263.8" y2="137.3"/>
		<line class="st0" x1="274.1" y1="116.7" x2="274.1" y2="132.1"/>
	</g>
	<g>
		<path class="st0" d="M221.7,121.7c26.7-1.3,50.2-8,50.1-19.9c0-1.3,0-7.5,0-10.2"/>
		<path class="st0" d="M216.2,106.5c29-0.6,55.7-7.5,55.6-20.1c0-4.7-3.6-8.6-9.6-11.9"/>
		<line class="st0" x1="271.7" y1="100.5" x2="271.8" y2="86.4"/>
		<line class="st0" x1="229.2" y1="105.8" x2="229.2" y2="120.2"/>
		<line class="st0" x1="243.3" y1="103.9" x2="243.3" y2="119.6"/>
		<line class="st0" x1="256.5" y1="100.5" x2="256.5" y2="115.9"/>
		<line class="st0" x1="266.8" y1="95.1" x2="266.8" y2="110.7"/>
	</g>
	<g>
		<path class="st0" d="M209.8,100.2c27.6-1.1,52.3-7.8,52.2-20c0-1.3,0.5-8.3,0-9.5"/>
		<path class="st0" d="M198.5,85c31.9,0.5,63.6-6.3,63.5-20.1"/>
		<line class="st0" x1="261.9" y1="78.8" x2="262" y2="64.8"/>
		<line class="st0" x1="203.2" y1="84.7" x2="203.2" y2="93.1"/>
		<line class="st0" x1="219.4" y1="84.3" x2="219.4" y2="98.7"/>
		<line class="st0" x1="233.5" y1="82.4" x2="233.5" y2="98"/>
		<line class="st0" x1="246.7" y1="78.8" x2="246.7" y2="94.3"/>
		<line class="st0" x1="256.9" y1="73.6" x2="256.9" y2="89.1"/>
	</g>
	<g>
		<path class="st0" d="M154.8,70.6c33.7,14.2,112.1,9.8,112-12c0-1.3-0.1-5.1-0.1-8.4"/>
		<path class="st0" d="M163.6,58.3c36.9,10.3,103.2,5,103.1-15c-0.2-22.9-86.1-29.2-116.4-15.4"/>
		<line class="st0" x1="266.6" y1="57.3" x2="266.7" y2="43.3"/>
		<line class="st0" x1="207.9" y1="63.2" x2="207.9" y2="78"/>
		<line class="st0" x1="224.1" y1="62.8" x2="224.1" y2="77.1"/>
		<line class="st0" x1="238.3" y1="60.8" x2="238.3" y2="76.5"/>
		<line class="st0" x1="251.4" y1="57.3" x2="251.4" y2="72.8"/>
		<line class="st0" x1="261.7" y1="52.1" x2="261.7" y2="67.7"/>
	</g>
	<path class="st0" d="M38.5,47.2c0.3,3.6,0,5.8,0,7c0,31.1,127.2,31.6,127,3.8c0-1.3,0-3.3-0.1-4.9"/>
	<path class="st0" d="M38.5,38.9c0,31.1,127.2,31.6,127,3.8C165.3,14.9,38.5,11.6,38.5,38.9z"/>
	<line class="st0" x1="165.4" y1="56.8" x2="165.5" y2="42.7"/>
	<line class="st0" x1="38.7" y1="41" x2="39.1" y2="57.3"/>
	<line class="st0" x1="106.8" y1="62.7" x2="106.8" y2="77.4"/>
	<line class="st0" x1="123" y1="62.1" x2="123" y2="76.5"/>
	<line class="st0" x1="137.1" y1="60.2" x2="137.1" y2="76"/>
	<line class="st0" x1="150.3" y1="56.8" x2="150.3" y2="72.2"/>
	<line class="st0" x1="160.5" y1="51.5" x2="160.5" y2="67"/>
	<path class="st0" d="M24.4,173.9c-0.1,2.6-0.2,5.1,0,6.5c2.9,22.1,66.7,28.8,102.7,20.6"/>
	<path class="st0" d="M34,178.1c15.8,9.3,48,12.6,74.9,10.2"/>
	<line class="st0" x1="92.7" y1="188.8" x2="92.7" y2="203.6"/>
	<line class="st0" x1="108.8" y1="188.4" x2="108.8" y2="202.7"/>
	<path class="st0" d="M5.4,143.9c0,2.7,0,12.9,0,14.2c0,21.4,60.1,28.3,97.6,21.5"/>
	<path class="st0" d="M19.4,129.8c-8.5,3.1-14,7.5-14,13c0,20.1,53.4,27.5,90.9,22.6"/>
	<line class="st0" x1="73.6" y1="166.5" x2="73.6" y2="181.3"/>
	<line class="st0" x1="89.8" y1="166.1" x2="89.8" y2="180.5"/>
	<path class="st0" d="M19.4,123c0,2.8,0,13,0,14.3c0,17.5,40.3,25.4,75.4,23.9"/>
	<path class="st0" d="M22.4,115.1c-2,2-3.1,4.4-3.1,6.9c0,17.2,38.4,24.9,72.9,24"/>
	<line class="st0" x1="87.5" y1="145.7" x2="87.5" y2="160.5"/>
	<path class="st0" d="M92.7,141.3c-34,0.6-70.7-7.2-70.7-24l0.3-12.7"/>
	<path class="st0" d="M33.8,89.7c-7.4,3-11.9,7.1-11.9,12.3c0,17,38,24.9,72.4,24"/>
	<line class="st0" x1="90.1" y1="125.7" x2="90.1" y2="140.5"/>
	<path class="st0" d="M97.4,117.8c-31.7-0.5-63.6-8.4-63.6-24V79.7"/>
	<path class="st0" d="M46.2,66.1c-7.6,3-12.4,7.1-12.4,12.5c0,16.9,37.5,24.8,71.7,24"/>
	<g>
		<path class="st0" d="M96.9,118.1c10.5-26.6,37.6-44.4,67.6-41.8c20.9,1.8,38.7,13.2,49.4,29.4c8.1,12.1,12.3,27,10.9,42.6
			c-3.2,36.5-35.5,63.5-72,60.3c-36.5-3.2-63.5-35.5-60.3-72C93.1,130.1,94.6,123.9,96.9,118.1"/>
		<g>
			<path class="st1" d="M192.4,114.1c-1.3,4.5-3.3,8.7-6.2,12.5c-0.6,1-1.6,1.8-2.3,2.7l-1.4,1.2c-0.4,0.4-1,0.7-1.4,1.2
				c-1.9,1.5-4,2.7-6.4,3.5c-4.6,1.7-9.8,1.9-14.6,0.7c-4.9-1.2-9.4-3.9-12.7-8c-1.6-2-2.9-4.4-3.6-6.9c-0.7-2.6-1-5.2-0.7-7.8
				c0.3-2.6,1-5.1,1.9-7.6c1.1-2.3,2.5-4.6,4.2-6.5c1.7-1.9,3.6-3.6,5.8-5.1c2.1-1.4,4.4-2.6,6.8-3.4c2.5-0.9,5-1.4,7.6-1.6
				c2.7-0.2,5.3,0.1,7.9,0.9c5,1.5,9.4,4.5,12.9,7.9c3.5,3.5,6.4,7.5,8.7,11.8c2.2,4.3,3.9,8.9,4.9,13.7c0.4,2.5,0.7,4.9,0.5,7.5
				c-0.1,1.2-0.1,2.5-0.3,3.6l-0.2,1.8l-0.3,1.8c-0.9,4.8-2.3,9.3-4.3,13.6c-1.9,4.3-4,8.4-6.2,12.5c-4.5,8.1-9.3,15.9-14.2,23.6
				c3.7-8.4,7.7-16.7,11.4-25c1.9-4.2,3.6-8.3,5.1-12.6c0.4-1.1,0.6-2.1,1.1-3.2c0.3-1.1,0.6-2.1,1-3.2c0.5-2.1,1-4.3,1.3-6.5
				l0.2-1.6l0.1-1.6c0.1-1.1,0.1-2.1,0.1-3.3c0-2.1-0.2-4.2-0.7-6.2c-1-4.2-2.6-8.2-4.7-11.9c-2.1-3.7-4.7-7.2-7.8-10.1
				c-3-2.9-6.6-5.2-10.3-6.4c-1.9-0.5-3.7-0.9-5.8-0.7c-1.9,0.1-3.9,0.5-5.9,1.2c-1.9,0.6-3.7,1.6-5.4,2.7c-1.7,1.2-3.2,2.5-4.6,3.9
				c-1.4,1.5-2.5,3.2-3.4,4.9c-0.9,1.8-1.4,3.7-1.7,5.6c-0.4,3.9,0.4,7.9,2.8,11.2c2.3,3.3,5.9,5.6,9.8,7c3.9,1.3,8.4,1.5,12.5,0.2
				c2-0.5,4-1.4,6-2.6c0.4-0.3,1-0.5,1.4-0.9l1.4-1c0.9-0.7,1.7-1.4,2.5-2.2C188,122.1,190.4,118.3,192.4,114.1z"/>
		</g>
		<path class="st0" d="M150.6,175.5c-31.4-15.4,10.7-47.8,26.2-28.8c9.1,11.2,4.4,20.1-0.7,31.4c-3.8,8.4-75.7-13-62.5-48.6
			C119.6,113.3,138,113,138,113"/>
	</g>
</g>
</svg>
