<?xml version="1.0" encoding="utf-8"?>
<!-- Generator: Adobe Illustrator 23.1.0, SVG Export Plug-In . SVG Version: 6.00 Build 0)  -->
<svg version="1.1" id="Слой_3" xmlns="http://www.w3.org/2000/svg" xmlns:xlink="http://www.w3.org/1999/xlink" x="0px" y="0px"
	 viewBox="0 0 320 240" style="enable-background:new 0 0 320 240;" xml:space="preserve">
<style type="text/css">
	.st0{fill:none;stroke:#428cff;stroke-width:6;stroke-miterlimit:10;}
	.st1{fill:#428cff;}
</style>
<g>
	<path class="st0" d="M210.8,198.55c37.53,1.89,77.38-6.72,77.24-25.39c-0.01-1.68,0.28-14.17,0-19.13"/>
	<path class="st0" d="M224.85,179.34c32.78-0.63,63.31-10.26,63.18-26.61"/>
	<line class="st0" x1="222.26" y1="181.02" x2="222.26" y2="197.74"/>
	<line class="st0" x1="240.39" y1="178.41" x2="240.39" y2="196.66"/>
	<line class="st0" x1="256.17" y1="175.98" x2="256.17" y2="195.92"/>
	<line class="st0" x1="270.91" y1="171.61" x2="270.91" y2="191.14"/>
	<line class="st0" x1="282.42" y1="164.89" x2="282.42" y2="184.59"/>
</g>
<g>
	<path class="st0" d="M228.75,159.77c36.76,1.39,74.82-7.25,74.68-25.5c-0.01-1.68-0.25-13.94-0.25-16.85"/>
	<path class="st0" d="M229.3,140.36c36.59,1.28,74.28-7.36,74.14-25.52c-0.05-7.18-5.98-13.07-15.38-17.61"/>
	<line class="st0" x1="237.67" y1="140.13" x2="237.67" y2="158.85"/>
	<line class="st0" x1="255.79" y1="139.52" x2="255.79" y2="157.77"/>
	<line class="st0" x1="271.57" y1="137.09" x2="271.57" y2="157.03"/>
	<line class="st0" x1="286.31" y1="132.72" x2="286.31" y2="152.25"/>
	<line class="st0" x1="297.82" y1="126" x2="297.82" y2="145.71"/>
</g>
<g>
	<path class="st0" d="M227.24,128.6c31.86-0.99,60.91-9.6,60.79-25.55c-0.01-1.68,0-16.41,0-19.43"/>
	<path class="st0" d="M219.44,109.25c34.76,0.27,68.73-8.4,68.6-25.64c-0.05-6.1-4.33-11.27-11.38-15.47"/>
	<line class="st0" x1="240.39" y1="108.3" x2="240.39" y2="126.55"/>
	<line class="st0" x1="256.17" y1="105.86" x2="256.17" y2="125.8"/>
	<line class="st0" x1="270.91" y1="101.49" x2="270.91" y2="121.03"/>
	<line class="st0" x1="282.42" y1="94.78" x2="282.42" y2="114.48"/>
</g>
<g>
	<path class="st0" d="M205.56,91.74c35.58,0.7,71.15-7.96,71.02-25.6c-0.01-1.68,0.21-15.34-0.06-18.14"/>
	<path class="st0" d="M156.16,64.01c39.83,15.46,120.62,9.26,120.42-17.31C276.33,13.91,153.6,7.93,136.46,35.14"/>
	<line class="st0" x1="210.81" y1="71.99" x2="210.81" y2="90.71"/>
	<line class="st0" x1="228.94" y1="71.38" x2="228.94" y2="89.63"/>
	<line class="st0" x1="244.71" y1="68.95" x2="244.71" y2="88.89"/>
	<line class="st0" x1="259.46" y1="64.58" x2="259.46" y2="84.11"/>
	<line class="st0" x1="270.97" y1="57.86" x2="270.97" y2="77.56"/>
</g>
<g>
	<path class="st0" d="M27.85,161.99c0,5.6,0,14.47,0,16.13c0,19.76,38.59,29.79,74.15,30.47"/>
	<path class="st0" d="M43.52,142.12c-9.61,3.91-15.67,9.41-15.67,16.57c0,17.12,26.74,26.94,57.01,29.7"/>
</g>
<g>
	<path class="st0" d="M43.25,129.69c0,4.66,0,13.88,0,15.54c0,12.17,13.5,20.64,32.18,25.52"/>
	<path class="st0" d="M43.25,125.8c0,11.78,12.64,20.1,30.39,25.04"/>
</g>
<g>
	<path class="st0" d="M27.85,89.88c0,4.02,0,16.47,0,18.13c0,14.82,20.02,24.16,45.03,28.2"/>
	<path class="st0" d="M27.85,88.58c0,16.1,23.64,25.74,51.63,29.13"/>
</g>
<g>
	<path class="st0" d="M16.4,53.21c0.61,2.87,0,16.22,0,17.88c0,19.74,35.52,29.77,71.05,30.47"/>
	<path class="st0" d="M150.05,69.89c5.35-3.65,8.48-8.11,8.44-13.37c-0.27-35.26-142.1-39.51-142.1-4.86
		c0,23.52,52.46,34.26,93.24,30.84"/>
	<line class="st0" x1="158.38" y1="72.4" x2="158.49" y2="56.52"/>
	<path class="st0" d="M16.4,75.03"/>
	<path class="st0" d="M16.4,54.97"/>
	<line class="st0" x1="91.73" y1="81.81" x2="90.73" y2="99.53"/>
</g>
<g>
	<circle class="st0" cx="151.6" cy="147.81" r="78.02"/>
	<g>
		<path class="st1" d="M191.22,114.4c-0.45,1.27-0.87,2.56-1.34,3.83c-0.56,1.23-1.04,2.51-1.66,3.72
			c-0.66,1.19-1.24,2.44-2.04,3.55l-1.13,1.72l-1.27,1.63c-0.81,1.12-1.84,2.06-2.78,3.08c-0.51,0.47-1.05,0.92-1.57,1.38
			c-0.27,0.23-0.52,0.46-0.8,0.68l-0.85,0.61c-2.23,1.69-4.77,3.01-7.43,3.98c-1.32,0.53-2.72,0.82-4.11,1.16l-2.12,0.32
			c-0.71,0.11-1.42,0.11-2.14,0.17c-2.86,0.12-5.75-0.15-8.56-0.85c-5.59-1.43-10.83-4.64-14.54-9.32
			c-1.86-2.33-3.24-5.07-4.08-7.97c-0.84-2.9-1.05-5.96-0.8-8.95c0.33-2.97,1.11-5.87,2.28-8.61c1.26-2.7,2.85-5.23,4.78-7.48
			c1.96-2.22,4.18-4.17,6.62-5.82c2.46-1.61,5.09-2.94,7.86-3.95c2.79-0.95,5.71-1.58,8.71-1.77c3-0.21,6.13,0.16,9,1.02
			c5.79,1.76,10.73,5.18,14.83,9.16c4.1,4.02,7.47,8.64,10.14,13.62c2.64,4.99,4.64,10.33,5.71,15.94c0.52,2.8,0.83,5.71,0.69,8.6
			c-0.1,1.4-0.12,2.8-0.32,4.19l-0.24,2.09l-0.35,2.07c-0.97,5.53-2.72,10.85-4.89,15.88c-2.17,5.04-4.61,9.9-7.18,14.66
			c-5.2,9.5-10.68,18.79-16.33,28c4.47-9.83,9.26-19.51,13.69-29.3c2.24-4.88,4.37-9.8,6.16-14.79c0.47-1.24,0.83-2.51,1.28-3.75
			c0.41-1.25,0.75-2.52,1.13-3.77c0.63-2.53,1.21-5.07,1.53-7.64l0.24-1.92l0.14-1.93c0.13-1.28,0.09-2.59,0.13-3.88
			c0.04-2.5-0.28-4.98-0.81-7.46c-1.08-4.96-3.03-9.78-5.54-14.25c-2.52-4.46-5.58-8.65-9.23-12.13c-3.63-3.48-7.88-6.27-12.46-7.62
			c-2.29-0.7-4.6-0.99-6.98-0.85c-2.38,0.13-4.77,0.62-7.09,1.39c-2.3,0.82-4.52,1.92-6.59,3.24c-2.05,1.36-3.89,2.98-5.57,4.75
			c-1.63,1.81-2.97,3.84-4.06,6c-1,2.2-1.69,4.52-2.03,6.91c-0.53,4.75,0.54,9.62,3.4,13.55c2.83,3.93,7.13,6.82,11.88,8.36
			c4.77,1.46,10.05,1.65,14.95,0.18c2.45-0.69,4.86-1.7,7.03-3.1l0.83-0.5c0.27-0.18,0.52-0.38,0.79-0.58l1.57-1.17
			c0.95-0.9,2.01-1.68,2.88-2.68l1.36-1.44l1.24-1.55c0.87-1.01,1.53-2.17,2.3-3.26c0.74-1.11,1.35-2.31,2.04-3.47
			C190.07,116.84,190.63,115.62,191.22,114.4z"/>
	</g>
	<path class="st0" d="M142.21,186.53c-36.93-18.16,12.51-56.21,30.74-33.77c10.66,13.12,5.13,23.63-0.88,36.97
		c-4.45,9.87-88.96-15.32-73.43-57.09c7.1-19.1,28.76-19.34,28.76-19.34"/>
</g>
</svg>
