<?xml version="1.0" encoding="utf-8"?>
<!-- Generator: Adobe Illustrator 23.1.0, SVG Export Plug-In . SVG Version: 6.00 Build 0)  -->
<svg version="1.1" id="Слой_2" xmlns="http://www.w3.org/2000/svg" xmlns:xlink="http://www.w3.org/1999/xlink" x="0px" y="0px"
	 viewBox="0 0 320 240" style="enable-background:new 0 0 320 240;" xml:space="preserve">
<style type="text/css">
	.st0{fill:none;stroke:#428cff;stroke-width:6;stroke-miterlimit:10;}
	.st1{fill:#428cff;}
</style>
<g>
	<path class="st0" d="M158.08,193.74c41.93,11.29,119.2,7.65,119.01-15.9c-0.01-1.59,0.63-7.37,0-8.83"/>
	<path class="st0" d="M173.51,179.54c41.9,6.36,103.75,0.77,103.58-20.08"/>
	<line class="st0" x1="276.98" y1="176.37" x2="277.09" y2="159.46"/>
	<line class="st0" x1="210.98" y1="183.39" x2="210.98" y2="201.09"/>
	<line class="st0" x1="229.2" y1="182.81" x2="229.2" y2="200.07"/>
	<line class="st0" x1="245.05" y1="180.51" x2="245.05" y2="199.37"/>
	<line class="st0" x1="259.88" y1="176.37" x2="259.88" y2="194.85"/>
	<line class="st0" x1="271.45" y1="170.02" x2="271.45" y2="188.66"/>
</g>
<g>
	<path class="st0" d="M191.62,162.58c42.21,7.31,101.12-0.12,100.95-21.53c-0.01-1.59,0.63-10.01,0-11.46"/>
	<path class="st0" d="M198.46,145.24c41.45,5.45,94.28-2.29,94.11-22.57c-0.05-6.73-5.9-12.27-15.21-16.55"/>
	<line class="st0" x1="292.46" y1="139.58" x2="292.57" y2="122.67"/>
	<line class="st0" x1="226.46" y1="146.6" x2="226.46" y2="164.31"/>
	<line class="st0" x1="244.68" y1="146.02" x2="244.68" y2="163.29"/>
	<line class="st0" x1="260.54" y1="143.72" x2="260.54" y2="162.58"/>
	<line class="st0" x1="275.36" y1="139.58" x2="275.36" y2="158.06"/>
	<line class="st0" x1="286.93" y1="133.23" x2="286.93" y2="151.87"/>
</g>
<g>
	<path class="st0" d="M200.41,135.58c37.44,1.61,76.82-6.55,76.68-24.06c-0.01-1.59,0.52-8.47-0.11-9.93"/>
	<path class="st0" d="M201,117.22c37.26,1.5,76.23-6.67,76.09-24.09c-0.05-5.99-4.69-11.04-12.28-15.1"/>
	<line class="st0" x1="276.98" y1="110.04" x2="277.09" y2="93.13"/>
	<line class="st0" x1="211.98" y1="117.06" x2="211.98" y2="134.77"/>
	<line class="st0" x1="229.2" y1="116.48" x2="229.2" y2="133.75"/>
	<line class="st0" x1="245.05" y1="114.18" x2="245.05" y2="133.04"/>
	<line class="st0" x1="259.88" y1="110.04" x2="259.88" y2="128.53"/>
	<line class="st0" x1="271.45" y1="103.69" x2="271.45" y2="122.33"/>
</g>
<g>
	<path class="st0" d="M200.95,100.82c35.75,0.65,64.76-7.55,64.63-24.22c-0.01-1.59,0.52-10.97-0.11-12.43"/>
	<path class="st0" d="M191.97,82.38c36.49,1.05,73.75-7.14,73.61-24.17c-0.21-25.6-84.23-33.92-123.3-21.59"/>
	<line class="st0" x1="265.47" y1="75.12" x2="265.58" y2="58.21"/>
	<line class="st0" x1="199.46" y1="82.13" x2="199.46" y2="99.84"/>
	<line class="st0" x1="217.69" y1="81.56" x2="217.69" y2="98.82"/>
	<line class="st0" x1="233.54" y1="79.26" x2="233.54" y2="98.12"/>
	<line class="st0" x1="248.36" y1="75.12" x2="248.36" y2="93.6"/>
	<line class="st0" x1="259.94" y1="68.77" x2="259.94" y2="87.41"/>
</g>
<g>
	<ellipse class="st0" cx="115.08" cy="117.84" rx="86.16" ry="85.65"/>
	<g>
		<path class="st1" d="M158.82,81.16c-0.5,1.39-0.98,2.81-1.5,4.2c-0.62,1.35-1.16,2.76-1.86,4.08c-0.74,1.3-1.39,2.67-2.27,3.89
			l-1.26,1.88l-1.41,1.78l-0.71,0.89c-0.24,0.29-0.52,0.55-0.78,0.83l-1.59,1.64l-1.73,1.5c-0.29,0.25-0.58,0.51-0.88,0.74
			l-0.94,0.67c-2.46,1.84-5.25,3.26-8.17,4.31c-1.45,0.57-2.98,0.89-4.5,1.25l-2.32,0.35c-0.77,0.13-1.56,0.12-2.34,0.18
			c-3.13,0.13-6.29-0.17-9.36-0.92c-6.11-1.57-11.84-5.03-15.93-10.11c-2.03-2.54-3.56-5.51-4.49-8.67
			c-0.92-3.16-1.18-6.5-0.91-9.76c0.37-3.24,1.2-6.41,2.49-9.4c1.38-2.94,3.11-5.71,5.23-8.15c2.14-2.41,4.57-4.55,7.24-6.34
			c2.69-1.75,5.56-3.21,8.58-4.3c3.04-1.04,6.22-1.73,9.49-1.95l2.46-0.07l2.48,0.18c0.83,0.06,1.63,0.24,2.45,0.37
			c0.8,0.18,1.61,0.37,2.4,0.58c6.32,1.87,11.75,5.57,16.27,9.9c4.52,4.37,8.25,9.41,11.2,14.85c2.93,5.45,5.16,11.29,6.36,17.43
			c0.58,3.06,0.94,6.24,0.81,9.41c-0.11,1.54-0.12,3.07-0.34,4.6l-0.26,2.29c-0.11,0.76-0.25,1.52-0.38,2.28
			c-1.05,6.07-2.97,11.91-5.34,17.44c-2.38,5.54-5.06,10.88-7.89,16.13c-5.71,10.46-11.72,20.68-17.91,30.83
			c5.01-10.77,10.34-21.39,15.27-32.14c2.49-5.36,4.86-10.76,6.86-16.25c0.52-1.37,0.93-2.76,1.42-4.13
			c0.45-1.38,0.84-2.77,1.25-4.16c0.71-2.79,1.36-5.6,1.7-8.43c0.09-0.71,0.2-1.41,0.27-2.12l0.16-2.14
			c0.15-1.42,0.09-2.86,0.14-4.28c0.03-2.76-0.33-5.52-0.92-8.26c-1.21-5.48-3.38-10.81-6.18-15.74c-2.8-4.92-6.22-9.53-10.28-13.36
			c-4.05-3.83-8.77-6.9-13.88-8.38c-0.64-0.18-1.28-0.33-1.92-0.48c-0.65-0.09-1.29-0.26-1.94-0.3l-1.95-0.16l-1.98,0.04
			c-2.65,0.16-5.32,0.71-7.89,1.56c-2.56,0.91-5.02,2.14-7.32,3.6c-2.28,1.5-4.33,3.31-6.19,5.27c-1.82,2.01-3.3,4.27-4.51,6.67
			c-1.11,2.44-1.86,5.03-2.24,7.68c-0.58,5.28,0.69,10.7,3.89,15.04c3.19,4.34,7.99,7.49,13.27,9.17c2.66,0.8,5.44,1.23,8.24,1.26
			c0.7-0.02,1.4,0.04,2.1-0.05l2.1-0.19c1.38-0.25,2.78-0.48,4.13-0.9c2.71-0.77,5.37-1.89,7.77-3.44l0.92-0.56
			c0.3-0.2,0.58-0.42,0.87-0.64l1.73-1.29l1.62-1.44c0.27-0.24,0.55-0.47,0.81-0.73l0.75-0.79
			C153.31,91.7,156.47,86.61,158.82,81.16z"/>
	</g>
	<path class="st0" d="M104.71,160.35c-40.78-19.94,13.82-61.71,33.95-37.08c11.78,14.41,5.66,25.94-0.97,40.58
		c-4.92,10.84-98.24-16.82-81.1-62.68c7.84-20.97,31.76-21.23,31.76-21.23"/>
</g>
</svg>
